<svg width="750" height="175" xmlns="http://www.w3.org/2000/svg">

 <g>
  <title>Layer 1</title>
  <g id="svg_15">
   <path id="svg_2" d="m51.8001,75.6446l1.68082,27.01769c0.06225,0.87154 0.80929,1.36956 1.61857,1.12055l158.55773,-47.74785c0.06225,-0.74703 0.06225,-1.43181 0.12451,-2.2411l-161.98163,21.85071z" fill="#41729f"/>
   <path id="svg_3" d="m65.55796,6.66856c-0.87154,-0.18676 -1.99209,0.24901 -2.55236,0.93379l-19.11159,24.40307l156.56565,8.77764l-168.70493,6.78555l-22.47324,28.69851c-0.56027,0.68478 -0.24901,1.1828 0.62253,1.0583l204.00224,-27.45346c0,-6.41203 -1.43181,-11.95253 -4.04643,-15.62544l-144.30186,-27.57796z" fill="#41729f"/>
   <path id="svg_4" d="m228.22042,154.38641l18.30231,-19.42286l-3.92192,-62.19049l-0.06225,-1.24505l-16.12346,18.86258l1.80533,63.99582z" fill="#274472"/>
   <path id="svg_5" d="m184.82969,93.38905l3.99145,63.43293l-40.56974,2.55281l-3.99145,-63.43293l40.56974,-2.55281z" fill="#274472"/>
   <path id="svg_6" d="m196.04185,157.39105l-3.99028,-63.43293l32.18243,-2.02445l3.99028,63.43293l-32.18243,2.02445z" fill="#274472"/>
   <path id="svg_7" d="m200.5219,76.26713l-11.01874,0.68478c-1.80533,-3.11264 -3.23714,-6.91005 -4.29544,-10.64522l-3.48615,1.0583c1.99209,7.22132 5.54049,15.12742 11.08099,18.61357l2.30335,-2.86363l5.41599,-6.8478z" fill="#274472"/>
   <path id="svg_8" d="m206.80547,73.76911l-5.41599,6.78555c1.12055,-0.62253 2.17885,-1.36956 3.11264,-2.2411c1.30731,-1.24505 2.49011,-2.80137 3.48615,-4.6067l-1.1828,0.06225z" fill="#274472"/>
   <path id="svg_9" d="m190.68201,85.34812c-4.04643,-1.49407 -7.22132,-5.35374 -9.58692,-9.89819l-18.55132,1.1828l-18.30231,19.42286l40.90005,-3.73516l5.54049,-6.97231z" fill="#274472"/>
   <path id="svg_10" d="m256.2964,42.27317l-38.90796,-7.40808c-0.99604,-2.2411 -2.30335,-4.41994 -4.10868,-6.22527c-3.11264,-3.11264 -7.15907,-4.6067 -12.01478,-4.4822c-3.2994,0.06225 -6.59879,1.30731 -9.83593,3.73516c-0.12451,0.12451 -0.24901,0.18676 -0.37352,0.37352l5.10472,0.99604c1.74308,-0.87154 3.48615,-1.36956 5.16698,-1.43181c3.79742,-0.06225 6.97231,1.0583 9.40016,3.4239c3.61066,3.54841 5.60275,10.02269 5.54049,17.80428c-0.12451,15.12742 -2.86363,24.96335 -8.34187,30.06807c-2.11659,1.99209 -4.6067,3.23714 -7.53258,3.73516l-3.11264,3.92192l-4.66896,5.85176l32.06016,-2.92588l17.86654,-17.1195l-1.68082,0.12451l-25.27461,1.61857c2.42786,-5.35374 3.79742,-12.3883 4.17093,-21.35269l6.03852,-1.80533l-6.03852,0.80929c0,-0.93379 0.06225,-1.86758 0.06225,-2.86363c0,-0.37352 0,-0.74703 0,-1.12055l36.41785,-4.91797c1.24505,-0.24901 1.24505,-0.56027 0.06225,-0.80929z" fill="#274472"/>
   <path d="m315.98218,43.31259c1.31329,2.4077 2.82723,5.38085 4.5418,8.91944c1.71458,3.53859 3.50211,7.36903 5.36261,11.49131c1.8605,4.12228 3.70276,8.33576 5.52677,12.64044c1.82402,4.30468 3.53859,8.354 5.14373,12.14796c1.60514,-3.79396 3.31971,-7.84327 5.14373,-12.14796c1.82402,-4.30468 3.66627,-8.51816 5.52677,-12.64044c1.8605,-4.12228 3.64803,-7.95272 5.36261,-11.49131c1.71458,-3.53859 3.22851,-6.51174 4.5418,-8.91944l15.54063,0c0.72961,5.03429 1.40449,10.6705 2.02466,16.90864c0.62017,6.23814 1.16737,12.73164 1.64162,19.48051c0.47424,6.74886 0.91201,13.51597 1.31329,20.30131c0.40128,6.78534 0.74785,13.16941 1.03969,19.15218l-16.63504,0c-0.21888,-7.36903 -0.51072,-15.39471 -0.87553,-24.07703c-0.3648,-8.68232 -0.91201,-17.43761 -1.64162,-26.26585c-1.31329,3.06435 -2.77251,6.45702 -4.37764,10.17802c-1.60514,3.721 -3.19203,7.44199 -4.76069,11.16299c-1.56865,3.721 -3.08259,7.27783 -4.5418,10.6705c-1.45921,3.39267 -2.69955,6.29286 -3.721,8.70056l-11.92907,0c-1.02145,-2.4077 -2.26178,-5.30789 -3.721,-8.70056c-1.45921,-3.39267 -2.97315,-6.94951 -4.5418,-10.6705c-1.56865,-3.721 -3.15555,-7.44199 -4.76069,-11.16299c-1.60514,-3.721 -3.06435,-7.11367 -4.37764,-10.17802c-0.72961,8.82824 -1.27681,17.58353 -1.64162,26.26585c-0.3648,8.68232 -0.65665,16.708 -0.87553,24.07703l-16.63504,0c0.29184,-5.98278 0.63841,-12.36684 1.03969,-19.15218c0.40128,-6.78534 0.83905,-13.55245 1.31329,-20.30131c0.47424,-6.74886 1.02145,-13.24237 1.64162,-19.48051c0.62017,-6.23814 1.29505,-11.87435 2.02466,-16.90864l16.30671,0zm130.78204,46.95021c0,4.52356 -0.65665,8.66408 -1.96994,12.42156c-1.31329,3.75748 -3.21027,6.96775 -5.69093,9.63081c-2.48066,2.66307 -5.45381,4.7242 -8.91944,6.18342c-3.46563,1.45921 -7.35079,2.18882 -11.65547,2.18882c-4.23172,0 -8.0804,-0.72961 -11.54603,-2.18882c-3.46563,-1.45921 -6.43878,-3.52035 -8.91944,-6.18342c-2.48066,-2.66307 -4.41412,-5.87334 -5.80038,-9.63081c-1.38625,-3.75748 -2.07938,-7.898 -2.07938,-12.42156c0,-4.52356 0.71137,-8.64584 2.1341,-12.36684c1.42273,-3.721 3.39267,-6.89479 5.90982,-9.52137c2.51714,-2.62658 5.50853,-4.66948 8.97417,-6.1287c3.46563,-1.45921 7.24135,-2.18882 11.32715,-2.18882c4.15876,0 7.97096,0.72961 11.43659,2.18882c3.46563,1.45921 6.43878,3.50211 8.91944,6.1287c2.48066,2.62658 4.41412,5.80038 5.80038,9.52137c1.38625,3.721 2.07938,7.84327 2.07938,12.36684zm-16.63504,0c0,-5.03429 -1.00321,-8.99241 -3.00963,-11.87435c-2.00642,-2.88195 -4.87013,-4.32292 -8.59112,-4.32292c-3.721,0 -6.60294,1.44097 -8.64584,4.32292c-2.0429,2.88195 -3.06435,6.84007 -3.06435,11.87435c0,5.03429 1.02145,9.02889 3.06435,11.98379c2.0429,2.95491 4.92485,4.43236 8.64584,4.43236c3.721,0 6.5847,-1.47745 8.59112,-4.43236c2.00642,-2.95491 3.00963,-6.94951 3.00963,-11.98379zm43.33865,28.89243c-3.721,-7.29607 -7.49671,-15.83247 -11.32715,-25.6092c-3.83044,-9.77673 -7.46023,-20.42899 -10.88938,-31.95678l17.29168,0c0.72961,2.84547 1.5869,5.92806 2.57186,9.24777c0.98497,3.31971 2.00642,6.6759 3.06435,10.06858c1.05793,3.39267 2.11586,6.69414 3.17379,9.90441c1.05793,3.21027 2.09762,6.1287 3.11907,8.75528c0.94849,-2.62658 1.96994,-5.54501 3.06435,-8.75528c1.09441,-3.21027 2.17058,-6.51174 3.22851,-9.90441c1.05793,-3.39267 2.07938,-6.74886 3.06435,-10.06858c0.98497,-3.31971 1.84226,-6.4023 2.57186,-9.24777l16.85392,0c-3.42915,11.52779 -7.05895,22.18005 -10.88938,31.95678c-3.83044,9.77673 -7.60615,18.31313 -11.32715,25.6092l-13.57069,0zm40.2743,-28.34523c0,-5.10725 0.78433,-9.57609 2.35298,-13.40653c1.56865,-3.83044 3.62979,-7.02247 6.18342,-9.57609c2.55362,-2.55362 5.49029,-4.48708 8.81,-5.80038c3.31971,-1.31329 6.73062,-1.96994 10.23274,-1.96994c8.1716,0 14.62862,2.4989 19.37106,7.49671c4.74245,4.99781 7.11367,12.3486 7.11367,22.05237c0,0.94849 -0.03648,1.98818 -0.10944,3.11907c-0.07296,1.13089 -0.14592,2.1341 -0.21888,3.00963l-36.99107,0c0.3648,3.35619 1.93346,6.01926 4.70596,7.9892c2.77251,1.96994 6.4935,2.95491 11.16299,2.95491c2.99139,0 5.92806,-0.2736 8.81,-0.82081c2.88195,-0.54721 5.23493,-1.22209 7.05895,-2.02466l2.18882,13.24237c-0.87553,0.43776 -2.0429,0.87553 -3.50211,1.31329c-1.45921,0.43776 -3.08259,0.82081 -4.87013,1.14913c-1.78754,0.32832 -3.70276,0.60193 -5.74565,0.82081c-2.0429,0.21888 -4.0858,0.32832 -6.1287,0.32832c-5.18021,0 -9.68553,-0.76609 -13.51597,-2.29826c-3.83044,-1.53217 -7.00423,-3.62979 -9.52137,-6.29286c-2.51714,-2.66307 -4.37764,-5.81862 -5.58149,-9.46665c-1.20385,-3.64803 -1.80578,-7.58791 -1.80578,-11.81963zm38.30436,-6.23814c-0.07296,-1.38625 -0.31008,-2.73603 -0.71137,-4.04932c-0.40128,-1.31329 -1.02145,-2.48066 -1.8605,-3.50211c-0.83905,-1.02145 -1.89698,-1.8605 -3.17379,-2.51714c-1.27681,-0.65665 -2.86371,-0.98497 -4.76069,-0.98497c-1.82402,0 -3.39267,0.31008 -4.70596,0.93025c-1.31329,0.62017 -2.4077,1.44097 -3.28323,2.46242c-0.87553,1.02145 -1.55041,2.20706 -2.02466,3.55683c-0.47424,1.34977 -0.82081,2.71779 -1.03969,4.10404l21.55988,0zm55.70549,-41.25927l17.0728,0l0,75.84264l-17.0728,0l0,-75.84264zm32.94175,3.93988l16.30671,-2.62658l0,16.96336l19.58995,0l0,13.57069l-19.58995,0l0,20.24659c0,3.42915 0.60193,6.16518 1.80578,8.20808c1.20385,2.0429 3.62979,3.06435 7.27783,3.06435c1.75106,0 3.55683,-0.16416 5.41733,-0.49248c1.8605,-0.32832 3.55683,-0.78433 5.08901,-1.36801l2.29826,12.69516c-1.96994,0.80257 -4.15876,1.49569 -6.56646,2.07938c-2.4077,0.58369 -5.36261,0.87553 -8.86472,0.87553c-4.4506,0 -8.13512,-0.60193 -11.05355,-1.80578c-2.91843,-1.20385 -5.25317,-2.88195 -7.00423,-5.03429c-1.75106,-2.15234 -2.97315,-4.76069 -3.66627,-7.82503c-0.69313,-3.06435 -1.03969,-6.45702 -1.03969,-10.17802l0,-48.37294zm65.88351,15.65007c0,5.90982 -0.21888,11.41835 -0.65665,16.5256c-0.43776,5.10725 -1.02145,10.28746 -1.75106,15.54063l-12.47628,0c-0.72961,-5.25317 -1.33153,-10.43338 -1.80578,-15.54063c-0.47424,-5.10725 -0.71137,-10.61578 -0.71137,-16.5256l0,-19.58995l17.40113,0l0,19.58995zm1.42273,47.60685c0,3.21027 -1.03969,5.69093 -3.11907,7.44199c-2.07938,1.75106 -4.43236,2.62658 -7.05895,2.62658c-2.62658,0 -4.97957,-0.87553 -7.05895,-2.62658c-2.07938,-1.75106 -3.11907,-4.23172 -3.11907,-7.44199c0,-3.21027 1.03969,-5.69093 3.11907,-7.44199c2.07938,-1.75106 4.43236,-2.62658 7.05895,-2.62658c2.62658,0 4.97957,0.87553 7.05895,2.62658c2.07938,1.75106 3.11907,4.23172 3.11907,7.44199z" fill="#274472" id="text"/>
  </g>
  <path id="svg_16" d="m92,222l-10,-11l10,11z" opacity="NaN" stroke="null" fill="#ffffff"/>
 </g>
</svg>